<?xml version="1.0" standalone="no"?>
<!DOCTYPE svg PUBLIC "-//W3C//DTD SVG 20010904//EN"
 "http://www.w3.org/TR/2001/REC-SVG-20010904/DTD/svg10.dtd">
<svg version="1.0" xmlns="http://www.w3.org/2000/svg"
 width="170.000000pt" height="170.000000pt" viewBox="0 0 170.000000 170.000000"
 preserveAspectRatio="xMidYMid meet">
<metadata>
Created by potrace 1.11, written by Peter Selinger 2001-2013
</metadata>
<g transform="translate(0.000000,170.000000) scale(0.100000,-0.100000)"
fill="#000000" stroke="none">
<path d="M538 1494 c-52 -22 -68 -62 -68 -168 l0 -86 -211 -2 -212 -3 -21 -28
c-20 -28 -21 -40 -24 -440 -4 -478 -1 -509 38 -549 l28 -28 776 0 c489 0 784
4 801 10 53 20 55 41 55 507 0 264 -4 442 -10 465 -18 65 -30 68 -257 68
l-203 0 0 88 c0 107 -18 151 -70 169 -24 8 -123 12 -310 12 -224 0 -282 -3
-312 -15z m586 -80 c13 -5 16 -23 16 -90 l0 -84 -287 2 -288 3 -3 73 c-2 46 2
79 9 88 9 11 61 14 274 14 145 0 270 -3 279 -6z m484 -696 l2 -427 -22 -12
c-17 -9 -194 -11 -742 -6 -644 5 -720 7 -735 21 -14 15 -16 63 -19 410 -2 248
1 403 7 420 l11 26 747 -2 748 -3 3 -427z"/>
<path d="M766 944 c-70 -22 -149 -103 -170 -174 -20 -67 -20 -93 -1 -157 33
-110 138 -187 255 -187 105 1 188 52 238 149 66 128 1 305 -133 361 -54 22
-134 26 -189 8z m179 -52 c146 -71 175 -254 57 -364 -112 -105 -283 -74 -354
66 -93 182 113 389 297 298z"/>
<path d="M790 798 c0 -7 21 -34 47 -60 l47 -48 -48 -49 c-42 -42 -53 -71 -27
-71 16 0 121 103 121 119 0 22 -100 121 -123 121 -9 0 -17 -5 -17 -12z"/>
</g>
</svg>
